<svg xmlns="http://www.w3.org/2000/svg" viewBox="0 0 24 24" fill="white">
  <path 
    d="M11 7.5L16.207 2.293A1 1 0 0 1 16.914 2H18.5l-4.125 5.5H23.5l-.288 1.295a1.22 1.22 0 0 1-1.19.955.49.49 0 0 0-.478.389l-1.713 8.267A2 2 0 0 1 17.872 20H6.128a2 2 0 0 1-1.958-1.594L2.456 10.139a.49.49 0 0 0-.478-.389 1.22 1.22 0 0 1-1.19-.955L.5 7.5zm-5.5 3h2.708l.542 7H7.012a.5.5 0 0 1-.494-.424zm5.146 0h2.708l-.27 7h-2.167zm7.854 0h-2.708l-.542 7h1.738a.5.5 0 0 0 .494-.424z"
    clip-rule="evenodd"
    fill-rule="evenodd"
  />
</svg>
