<svg stroke="currentColor" fill="none" stroke-width="1" viewBox="0 0 24 24" height="200px" width="200px" xmlns="http://www.w3.org/2000/svg">
    <path
            d="M2.00488 9.49979V3.99979C2.00488 3.4475 2.4526 2.99979 3.00488 2.99979H21.0049C21.5572 2.99979 22.0049 3.4475 22.0049 3.99979V9.49979
       C20.6242 9.49979 19.5049 10.6191 19.5049 11.9998C19.5049 13.3805 20.6242 14.4998 22.0049 14.4998V19.9998C22.0049 20.5521 21.5572 20.9998 21.0049 20.9998H3.00488
       C2.4526 20.9998 2.00488 20.5521 2.00488 19.9998V14.4998C3.38559 14.4998 4.50488 13.3805 4.50488 11.9998C4.50488 10.6191 3.38559 9.49979 2.00488 9.49979Z"
            stroke="currentColor"
    />

    <line x1="15" y1="4" x2="15" y2="20" stroke="currentColor" stroke-width="1" stroke-dasharray="1.5"/>
</svg>
